<svg width="160" height="32" viewBox="0 0 160 32" fill="none" xmlns="http://www.w3.org/2000/svg">
  <path d="M24 0H0V24H24V0Z" fill="white"/>
  <path d="M6 6H18V18H6V6Z" fill="white"/>
  <path d="M8 8H16V16H8V8Z" fill="white"/>
  <path d="M10 10H14V14H10V10Z" fill="white"/>
  <path d="M32 6H40V8H32V6Z" fill="white"/>
  <path d="M32 10H40V12H32V10Z" fill="white"/>
  <path d="M32 14H40V16H32V14Z" fill="white"/>
  <path d="M32 18H40V20H32V18Z" fill="white"/>
  <path d="M44 6H52V8H44V6Z" fill="white"/>
  <path d="M44 10H52V12H44V10Z" fill="white"/>
  <path d="M44 14H52V16H44V14Z" fill="white"/>
  <path d="M44 18H52V20H44V18Z" fill="white"/>
  <path d="M56 6H64V8H56V6Z" fill="white"/>
  <path d="M56 10H64V12H56V10Z" fill="white"/>
  <path d="M56 14H64V16H56V14Z" fill="white"/>
  <path d="M56 18H64V20H56V18Z" fill="white"/>
  <path d="M68 6H76V8H68V6Z" fill="white"/>
  <path d="M68 10H76V12H68V10Z" fill="white"/>
  <path d="M68 14H76V16H68V14Z" fill="white"/>
  <path d="M68 18H76V20H68V18Z" fill="white"/>
  <path d="M80 6H88V8H80V6Z" fill="white"/>
  <path d="M80 10H88V12H80V10Z" fill="white"/>
  <path d="M80 14H88V16H80V14Z" fill="white"/>
  <path d="M80 18H88V20H80V18Z" fill="white"/>
  <path d="M92 6H100V8H92V6Z" fill="white"/>
  <path d="M92 10H100V12H92V10Z" fill="white"/>
  <path d="M92 14H100V16H92V14Z" fill="white"/>
  <path d="M92 18H100V20H92V18Z" fill="white"/>
  <path d="M104 6H112V8H104V6Z" fill="white"/>
  <path d="M104 10H112V12H104V10Z" fill="white"/>
  <path d="M104 14H112V16H104V14Z" fill="white"/>
  <path d="M104 18H112V20H104V18Z" fill="white"/>
</svg>

